<mxfile host="app.diagrams.net" modified="2023-06-06T11:11:53.119Z" agent="Mozilla/5.0 (Windows NT 10.0; Win64; x64) AppleWebKit/537.36 (KHTML, like Gecko) Chrome/114.0.0.0 Safari/537.36" etag="oFESWgNJX_3VOMFo-mVN" version="21.3.7" type="device">
  <diagram name="Page-1" id="tcJVGVx2p1g0ZBquWqOU">
    <mxGraphModel dx="1050" dy="541" grid="1" gridSize="10" guides="1" tooltips="1" connect="1" arrows="1" fold="1" page="1" pageScale="1" pageWidth="850" pageHeight="1100" math="0" shadow="0">
      <root>
        <mxCell id="0" />
        <mxCell id="1" parent="0" />
        <mxCell id="5QlbUnTOaLkHQUN5KpXD-36" value="FastAPI" style="swimlane;whiteSpace=wrap;html=1;startSize=23;" vertex="1" parent="1">
          <mxGeometry x="20" y="180" width="180" height="180" as="geometry" />
        </mxCell>
        <mxCell id="5QlbUnTOaLkHQUN5KpXD-38" value="FastAPI" style="rounded=0;whiteSpace=wrap;html=1;" vertex="1" parent="5QlbUnTOaLkHQUN5KpXD-36">
          <mxGeometry x="23.182727272727266" y="50" width="140" height="40" as="geometry" />
        </mxCell>
        <mxCell id="5QlbUnTOaLkHQUN5KpXD-12" value="APIRouter" style="rounded=0;whiteSpace=wrap;html=1;" vertex="1" parent="5QlbUnTOaLkHQUN5KpXD-36">
          <mxGeometry x="21.182727272727277" y="120" width="140" height="40" as="geometry" />
        </mxCell>
        <mxCell id="5QlbUnTOaLkHQUN5KpXD-37" style="edgeStyle=orthogonalEdgeStyle;rounded=0;orthogonalLoop=1;jettySize=auto;html=1;exitX=0.5;exitY=1;exitDx=0;exitDy=0;entryX=0.5;entryY=0;entryDx=0;entryDy=0;endSize=10;endArrow=block;endFill=1;" edge="1" parent="5QlbUnTOaLkHQUN5KpXD-36" source="5QlbUnTOaLkHQUN5KpXD-38" target="5QlbUnTOaLkHQUN5KpXD-12">
          <mxGeometry relative="1" as="geometry">
            <mxPoint x="94.27272727272748" y="30" as="targetPoint" />
          </mxGeometry>
        </mxCell>
        <mxCell id="5QlbUnTOaLkHQUN5KpXD-3" value="Entities" style="swimlane;whiteSpace=wrap;html=1;" vertex="1" parent="1">
          <mxGeometry x="648.6363636363636" y="250" width="186.36363636363635" height="200" as="geometry" />
        </mxCell>
        <mxCell id="5QlbUnTOaLkHQUN5KpXD-7" value="User" style="rounded=0;whiteSpace=wrap;html=1;" vertex="1" parent="5QlbUnTOaLkHQUN5KpXD-3">
          <mxGeometry x="22.272727272727266" y="51" width="140" height="40" as="geometry" />
        </mxCell>
        <mxCell id="5QlbUnTOaLkHQUN5KpXD-4" value="Interactors" style="swimlane;whiteSpace=wrap;html=1;" vertex="1" parent="1">
          <mxGeometry x="443.6363636363636" y="250" width="186.36363636363635" height="200" as="geometry" />
        </mxCell>
        <mxCell id="5QlbUnTOaLkHQUN5KpXD-27" style="edgeStyle=orthogonalEdgeStyle;rounded=0;orthogonalLoop=1;jettySize=auto;html=1;exitX=0.5;exitY=1;exitDx=0;exitDy=0;entryX=0.5;entryY=0;entryDx=0;entryDy=0;" edge="1" parent="5QlbUnTOaLkHQUN5KpXD-4" source="5QlbUnTOaLkHQUN5KpXD-8" target="5QlbUnTOaLkHQUN5KpXD-9">
          <mxGeometry relative="1" as="geometry" />
        </mxCell>
        <mxCell id="5QlbUnTOaLkHQUN5KpXD-8" value="UserInteractor" style="rounded=0;whiteSpace=wrap;html=1;" vertex="1" parent="5QlbUnTOaLkHQUN5KpXD-4">
          <mxGeometry x="22.272727272727266" y="51" width="140" height="40" as="geometry" />
        </mxCell>
        <mxCell id="5QlbUnTOaLkHQUN5KpXD-9" value="UserDbAdapter" style="rounded=0;whiteSpace=wrap;html=1;" vertex="1" parent="5QlbUnTOaLkHQUN5KpXD-4">
          <mxGeometry x="22.272727272727266" y="131" width="140" height="40" as="geometry" />
        </mxCell>
        <mxCell id="5QlbUnTOaLkHQUN5KpXD-21" value="&amp;lt; I &amp;gt;" style="text;html=1;strokeColor=none;fillColor=default;align=center;verticalAlign=middle;whiteSpace=wrap;rounded=0;" vertex="1" parent="5QlbUnTOaLkHQUN5KpXD-4">
          <mxGeometry x="111.81818181818181" y="116" width="27.954545454545453" height="30" as="geometry" />
        </mxCell>
        <mxCell id="5QlbUnTOaLkHQUN5KpXD-5" value="Adapters" style="swimlane;whiteSpace=wrap;html=1;" vertex="1" parent="1">
          <mxGeometry x="238.64" y="490" width="186.36" height="190" as="geometry" />
        </mxCell>
        <mxCell id="5QlbUnTOaLkHQUN5KpXD-19" style="edgeStyle=orthogonalEdgeStyle;rounded=0;orthogonalLoop=1;jettySize=auto;html=1;exitX=0.5;exitY=1;exitDx=0;exitDy=0;entryX=0.5;entryY=0;entryDx=0;entryDy=0;endSize=10;endArrow=block;endFill=1;" edge="1" parent="5QlbUnTOaLkHQUN5KpXD-5" source="5QlbUnTOaLkHQUN5KpXD-10" target="5QlbUnTOaLkHQUN5KpXD-11">
          <mxGeometry relative="1" as="geometry" />
        </mxCell>
        <mxCell id="5QlbUnTOaLkHQUN5KpXD-10" value="SQLUserDbAdapter" style="rounded=0;whiteSpace=wrap;html=1;" vertex="1" parent="5QlbUnTOaLkHQUN5KpXD-5">
          <mxGeometry x="22.272727272727266" y="50" width="140" height="40" as="geometry" />
        </mxCell>
        <mxCell id="5QlbUnTOaLkHQUN5KpXD-11" value="SQLConnection" style="rounded=0;whiteSpace=wrap;html=1;" vertex="1" parent="5QlbUnTOaLkHQUN5KpXD-5">
          <mxGeometry x="22.272727272727266" y="120" width="140" height="40" as="geometry" />
        </mxCell>
        <mxCell id="5QlbUnTOaLkHQUN5KpXD-26" value="&amp;lt; I &amp;gt;" style="text;html=1;strokeColor=none;fillColor=default;align=center;verticalAlign=middle;whiteSpace=wrap;rounded=0;" vertex="1" parent="5QlbUnTOaLkHQUN5KpXD-5">
          <mxGeometry x="115.54545454545453" y="106" width="27.954545454545453" height="30" as="geometry" />
        </mxCell>
        <mxCell id="5QlbUnTOaLkHQUN5KpXD-14" style="edgeStyle=orthogonalEdgeStyle;rounded=0;orthogonalLoop=1;jettySize=auto;html=1;exitX=1;exitY=0.5;exitDx=0;exitDy=0;entryX=0;entryY=0.5;entryDx=0;entryDy=0;endSize=10;endArrow=block;endFill=1;" edge="1" parent="1" source="5QlbUnTOaLkHQUN5KpXD-12" target="5QlbUnTOaLkHQUN5KpXD-8">
          <mxGeometry relative="1" as="geometry" />
        </mxCell>
        <mxCell id="5QlbUnTOaLkHQUN5KpXD-15" style="edgeStyle=orthogonalEdgeStyle;rounded=0;orthogonalLoop=1;jettySize=auto;html=1;exitX=1;exitY=0.5;exitDx=0;exitDy=0;entryX=0;entryY=0.5;entryDx=0;entryDy=0;endSize=10;endArrow=block;endFill=1;" edge="1" parent="1" source="5QlbUnTOaLkHQUN5KpXD-8" target="5QlbUnTOaLkHQUN5KpXD-7">
          <mxGeometry relative="1" as="geometry" />
        </mxCell>
        <mxCell id="5QlbUnTOaLkHQUN5KpXD-16" style="edgeStyle=orthogonalEdgeStyle;rounded=0;orthogonalLoop=1;jettySize=auto;html=1;exitX=1;exitY=0.5;exitDx=0;exitDy=0;entryX=0.5;entryY=1;entryDx=0;entryDy=0;endSize=10;endArrow=block;endFill=1;" edge="1" parent="1" source="5QlbUnTOaLkHQUN5KpXD-9" target="5QlbUnTOaLkHQUN5KpXD-7">
          <mxGeometry relative="1" as="geometry" />
        </mxCell>
        <mxCell id="5QlbUnTOaLkHQUN5KpXD-17" style="edgeStyle=orthogonalEdgeStyle;rounded=0;orthogonalLoop=1;jettySize=auto;html=1;exitX=1;exitY=0.5;exitDx=0;exitDy=0;entryX=0.5;entryY=1;entryDx=0;entryDy=0;endArrow=block;endFill=0;endSize=10;" edge="1" parent="1" source="5QlbUnTOaLkHQUN5KpXD-10" target="5QlbUnTOaLkHQUN5KpXD-9">
          <mxGeometry relative="1" as="geometry" />
        </mxCell>
        <mxCell id="5QlbUnTOaLkHQUN5KpXD-18" style="edgeStyle=orthogonalEdgeStyle;rounded=0;orthogonalLoop=1;jettySize=auto;html=1;exitX=1;exitY=0.5;exitDx=0;exitDy=0;entryX=0;entryY=0.5;entryDx=0;entryDy=0;endArrow=blockThin;endFill=0;endSize=10;" edge="1" parent="1" source="5QlbUnTOaLkHQUN5KpXD-13" target="5QlbUnTOaLkHQUN5KpXD-11">
          <mxGeometry relative="1" as="geometry" />
        </mxCell>
        <mxCell id="5QlbUnTOaLkHQUN5KpXD-32" style="edgeStyle=orthogonalEdgeStyle;rounded=0;orthogonalLoop=1;jettySize=auto;html=1;exitX=0.5;exitY=1;exitDx=0;exitDy=0;entryX=0.5;entryY=0;entryDx=0;entryDy=0;endSize=10;endArrow=block;endFill=1;" edge="1" parent="1" source="5QlbUnTOaLkHQUN5KpXD-30" target="5QlbUnTOaLkHQUN5KpXD-13">
          <mxGeometry relative="1" as="geometry" />
        </mxCell>
        <mxCell id="5QlbUnTOaLkHQUN5KpXD-33" style="edgeStyle=orthogonalEdgeStyle;rounded=0;orthogonalLoop=1;jettySize=auto;html=1;exitX=1;exitY=0.5;exitDx=0;exitDy=0;entryX=0;entryY=0.5;entryDx=0;entryDy=0;endSize=10;endArrow=block;endFill=1;" edge="1" parent="1" source="5QlbUnTOaLkHQUN5KpXD-30" target="5QlbUnTOaLkHQUN5KpXD-10">
          <mxGeometry relative="1" as="geometry" />
        </mxCell>
        <mxCell id="5QlbUnTOaLkHQUN5KpXD-34" style="edgeStyle=orthogonalEdgeStyle;rounded=0;orthogonalLoop=1;jettySize=auto;html=1;exitX=1;exitY=0.5;exitDx=0;exitDy=0;entryX=0;entryY=0.5;entryDx=0;entryDy=0;" edge="1" parent="1" source="5QlbUnTOaLkHQUN5KpXD-30" target="5QlbUnTOaLkHQUN5KpXD-8">
          <mxGeometry relative="1" as="geometry" />
        </mxCell>
        <mxCell id="5QlbUnTOaLkHQUN5KpXD-20" value="Drivers" style="swimlane;whiteSpace=wrap;html=1;" vertex="1" parent="1">
          <mxGeometry x="20" y="540" width="180" height="140" as="geometry" />
        </mxCell>
        <mxCell id="5QlbUnTOaLkHQUN5KpXD-13" value="SQLiteConnection" style="rounded=0;whiteSpace=wrap;html=1;" vertex="1" parent="5QlbUnTOaLkHQUN5KpXD-20">
          <mxGeometry x="22.272727272727266" y="70" width="140" height="40" as="geometry" />
        </mxCell>
        <mxCell id="5QlbUnTOaLkHQUN5KpXD-44" value="Layer 3" style="text;html=1;strokeColor=none;fillColor=none;align=center;verticalAlign=middle;whiteSpace=wrap;rounded=0;" vertex="1" parent="1">
          <mxGeometry x="302.64" y="110" width="60" height="30" as="geometry" />
        </mxCell>
        <mxCell id="5QlbUnTOaLkHQUN5KpXD-45" value="Layer 4" style="text;html=1;strokeColor=none;fillColor=none;align=center;verticalAlign=middle;whiteSpace=wrap;rounded=0;" vertex="1" parent="1">
          <mxGeometry x="79" y="110" width="60" height="30" as="geometry" />
        </mxCell>
        <mxCell id="5QlbUnTOaLkHQUN5KpXD-47" value="Layer 2" style="text;html=1;strokeColor=none;fillColor=none;align=center;verticalAlign=middle;whiteSpace=wrap;rounded=0;" vertex="1" parent="1">
          <mxGeometry x="500.82" y="110" width="60" height="30" as="geometry" />
        </mxCell>
        <mxCell id="5QlbUnTOaLkHQUN5KpXD-48" value="Layer 1" style="text;html=1;strokeColor=none;fillColor=none;align=center;verticalAlign=middle;whiteSpace=wrap;rounded=0;" vertex="1" parent="1">
          <mxGeometry x="710.82" y="110" width="60" height="30" as="geometry" />
        </mxCell>
        <mxCell id="5QlbUnTOaLkHQUN5KpXD-31" style="edgeStyle=orthogonalEdgeStyle;rounded=0;orthogonalLoop=1;jettySize=auto;html=1;exitX=0.5;exitY=1;exitDx=0;exitDy=0;entryX=0.5;entryY=0;entryDx=0;entryDy=0;endSize=10;endArrow=block;endFill=1;" edge="1" parent="1" source="5QlbUnTOaLkHQUN5KpXD-12" target="5QlbUnTOaLkHQUN5KpXD-30">
          <mxGeometry relative="1" as="geometry" />
        </mxCell>
        <mxCell id="5QlbUnTOaLkHQUN5KpXD-50" value="Factories" style="swimlane;whiteSpace=wrap;html=1;startSize=23;" vertex="1" parent="1">
          <mxGeometry x="20" y="390" width="180" height="120" as="geometry" />
        </mxCell>
        <mxCell id="5QlbUnTOaLkHQUN5KpXD-30" value="UserInteractorFactory" style="rounded=0;whiteSpace=wrap;html=1;" vertex="1" parent="5QlbUnTOaLkHQUN5KpXD-50">
          <mxGeometry x="22.272727272727266" y="50" width="140" height="40" as="geometry" />
        </mxCell>
      </root>
    </mxGraphModel>
  </diagram>
</mxfile>
